<svg xmlns="http://www.w3.org/2000/svg" xmlns:xlink="http://www.w3.org/1999/xlink" xmlns:inkscape="http://www.inkscape.org/namespaces/inkscape" version="1.1" width="283.465" height="283.465" viewBox="0 0 283.465 283.465">
<defs>
<clipPath id="clip_1">
<path transform="matrix(1,0,0,-1,0,283.465)" d="M0 283.465H283.465V0H0Z"/>
</clipPath>
</defs>
<g inkscape:groupmode="layer" inkscape:label="Layer 1">
<g clip-path="url(#clip_1)">
<path transform="matrix(1,0,0,-1,141.6641,224.4171)" d="M0 0C36.239 0 65.617 29.378 65.617 65.617 65.617 80.371 60.747 93.988 52.528 104.948L0 65.617-52.528 104.948C-60.747 93.988-65.617 80.371-65.617 65.617-65.617 29.378-36.239 0 0 0" fill="#ed1c24" fill-rule="evenodd"/>
<path transform="matrix(1,0,0,-1,6.4932,229.6662)" d="M0 0H270.342L227.052 57.723 226.783 58.081C208.478 26.495 174.306 5.249 135.171 5.249 96.036 5.249 61.864 26.495 43.559 58.082L43.29 57.723Z" fill="#00563b" fill-rule="evenodd"/>
<path transform="matrix(1,0,0,-1,44.4863,141.12419)" d="M0 0C-1.039-.079-1.122-.019-1.249 .484L-1.328 .79C-1.401 .874-1.658 .854-1.718 .761-1.65 .164-1.601-.39-1.562-.909-1.521-1.442-1.486-1.997-1.463-2.597-1.39-2.68-1.133-2.66-1.073-2.566L-1.041-2.252C-.991-1.735-.919-1.663 .121-1.585L4.194-1.274C5.233-1.195 5.316-1.256 5.444-1.759L5.522-2.065C5.596-2.148 5.853-2.129 5.912-2.035 5.845-1.438 5.795-.886 5.755-.354 5.715 .167 5.681 .71 5.658 1.311 5.585 1.394 5.327 1.386 5.268 1.292L5.235 .978C5.186 .462 5.113 .39 4.073 .31ZM.762 8.817C-.138 8.795-.972 8.818-1.274 8.933-1.511 9.027-1.605 9.236-1.656 9.523L-1.695 9.723C-1.786 9.81-2.019 9.781-2.084 9.713-2.051 9.28-2.029 8.88-2.019 8.47-2.008 8.015-2.008 7.581-2.015 6.98-1.946 6.915-1.713 6.899-1.626 6.99L-1.589 7.291C-1.552 7.593-1.48 7.839-1.25 7.944-.953 8.074-.121 8.14 .778 8.162L2.312 8.2C2.511 8.206 2.7 8.211 2.813 8.169 2.563 7.907 2.183 7.575 1.617 7.072L.541 6.111C-.622 5.081-1.447 4.339-1.945 4.215-1.917 3.981-1.897 3.66-1.888 3.282-1.877 2.827-1.873 2.271-1.883 1.749-1.847 1.639-1.579 1.634-1.493 1.714L-1.456 2.026C-1.41 2.417-1.281 2.575-1.094 2.669-.941 2.739-.764 2.755-.152 2.771L2.669 2.842C3.568 2.864 4.402 2.853 4.705 2.737 4.941 2.655 5.024 2.435 5.088 2.136L5.125 1.948C5.217 1.861 5.449 1.89 5.515 1.958 5.481 2.38 5.46 2.79 5.45 3.201 5.438 3.646 5.438 4.09 5.445 4.69 5.377 4.755 5.144 4.771 5.057 4.681L5.021 4.368C4.983 4.079 4.911 3.821 4.681 3.715 4.384 3.585 3.552 3.521 2.652 3.497L.497 3.442C.086 3.433-.103 3.428-.215 3.48-.054 3.685 .404 4.063 1.177 4.728L4.288 7.373C4.92 7.911 5.477 8.292 5.477 8.304 5.47 8.569 5.34 8.878 5.204 8.952 4.838 8.92 4.139 8.903 3.416 8.885ZM3.407 15.35C2.186 15.38 1.519 14.519 1.135 13.84L.728 13.117C.425 12.568-.054 12.125-.564 12.138-1.119 12.152-1.587 12.564-1.568 13.297-1.549 14.097-.726 14.554-.154 14.728-.041 14.826-.045 15.103-.177 15.163-.921 15.181-1.523 15.085-1.77 15.002-1.796 14.87-1.82 14.771-1.868 14.627-2.013 14.186-2.068 13.732-2.078 13.365-2.119 11.755-1.277 10.756-.021 10.735 1.078 10.707 1.767 11.567 2.187 12.357 2.537 13.015 3.091 13.846 3.991 13.823 4.547 13.81 5.104 13.417 5.082 12.595 5.059 11.651 4.018 10.933 3.29 10.729 3.166 10.643 3.171 10.387 3.313 10.306 4.068 10.287 4.871 10.411 5.121 10.616 5.261 10.846 5.565 11.471 5.591 12.494 5.634 14.171 4.773 15.315 3.407 15.35M4.258 18.638C5.283 18.508 5.374 18.429 5.366 17.926L5.357 17.423C5.413 17.326 5.668 17.294 5.745 17.374 5.821 18.148 5.887 18.722 5.954 19.251 6.018 19.748 6.095 20.297 6.208 21.011 6.151 21.097 5.896 21.129 5.82 21.06L5.709 20.627C5.58 20.139 5.483 20.084 4.458 20.214L-.398 20.832C-.686 20.868-.715 20.905-.681 21.169L-.597 21.831C-.491 22.658 .044 22.746 .773 22.844 .868 22.888 .884 23.188 .792 23.256 .161 23.313-.72 23.504-1.081 23.662-1.117 23.644-1.171 23.573-1.179 23.507-1.188 23.44-1.181 23.406-1.164 23.359-.945 23.23-.955 23.064-1.048 22.336L-1.569 18.236C-1.676 17.398-1.724 17.371-1.918 17.339-1.957 17.3-1.975 17.246-1.981 17.19-1.989 17.136-1.974 17.078-1.946 17.03-1.526 16.897-.85 16.756-.12 16.428 .031 16.476 .08 16.683 .03 16.823-.73 17.256-1.142 17.543-1.039 18.348L-.952 19.031C-.919 19.296-.864 19.289-.6 19.255ZM1.285 26.548C.259 26.731 .194 26.811 .196 27.329V27.646C.146 27.745-.106 27.79-.188 27.714-.271 27.119-.362 26.571-.454 26.057-.548 25.532-.652 24.986-.78 24.4-.73 24.301-.477 24.256-.396 24.331L-.286 24.628C-.108 25.115-.021 25.167 1.006 24.984L5.027 24.266C6.054 24.082 6.119 24.003 6.116 23.484V23.168C6.166 23.069 6.42 23.023 6.501 23.1 6.585 23.694 6.675 24.242 6.769 24.767 6.86 25.281 6.964 25.816 7.091 26.403 7.041 26.502 6.789 26.559 6.708 26.482L6.599 26.186C6.422 25.698 6.333 25.646 5.307 25.83ZM6.188 29.916C7.194 29.684 7.277 29.596 7.219 29.096L7.161 28.596C7.206 28.495 7.456 28.437 7.541 28.509 7.694 29.271 7.817 29.836 7.938 30.356 8.05 30.843 8.182 31.382 8.366 32.082 8.318 32.172 8.067 32.23 7.985 32.169L7.831 31.749C7.654 31.276 7.553 31.231 6.546 31.464L1.774 32.565C1.493 32.63 1.469 32.67 1.528 32.93L1.678 33.58C1.865 34.391 2.407 34.426 3.143 34.45 3.242 34.484 3.287 34.782 3.202 34.858 2.581 34.979 1.723 35.257 1.38 35.45 1.343 35.436 1.281 35.37 1.267 35.305 1.252 35.24 1.255 35.205 1.267 35.157 1.472 35.007 1.444 34.842 1.28 34.127L.351 30.1C.161 29.277 .11 29.255-.087 29.243-.129 29.207-.152 29.156-.165 29.101-.178 29.047-.169 28.988-.146 28.938 .259 28.764 .918 28.555 1.61 28.156 1.766 28.188 1.835 28.389 1.8 28.534 1.086 29.041 .706 29.368 .889 30.158L1.043 30.83C1.104 31.089 1.157 31.077 1.417 31.017ZM6.321 35.875C7.469 35.487 8.324 35.456 8.962 35.85 9.617 36.262 9.985 36.935 10.256 37.734 10.545 38.587 10.542 39.444 10.204 40.075 9.76 40.871 8.887 41.271 7.897 41.606L6.719 42.005C5.867 42.293 5.082 42.605 4.848 42.814 4.658 42.983 4.663 43.205 4.692 43.5L4.715 43.704C4.658 43.816 4.439 43.867 4.354 43.826 4.24 43.418 4.116 43.026 3.984 42.637 3.838 42.206 3.692 41.797 3.479 41.236 3.521 41.151 3.726 41.059 3.839 41.114L3.987 41.381C4.136 41.647 4.277 41.857 4.53 41.877 4.844 41.9 5.657 41.672 6.508 41.384L7.781 40.953C9.224 40.465 10.262 39.656 9.806 38.31 9.265 36.709 7.862 37.032 6.631 37.448L4.201 38.271C3.223 38.602 3.16 38.693 3.236 39.195L3.279 39.462C3.245 39.568 3.011 39.647 2.92 39.584 2.77 39.071 2.603 38.553 2.428 38.038 2.257 37.533 2.071 37.009 1.88 36.511 1.903 36.374 2.141 36.305 2.232 36.368L2.374 36.613C2.629 37.055 2.713 37.097 3.692 36.765ZM11.007 44.844C11.948 44.418 12.012 44.316 11.856 43.838L11.701 43.359C11.726 43.251 11.96 43.145 12.057 43.198 12.357 43.917 12.589 44.446 12.809 44.932 13.015 45.388 13.25 45.891 13.567 46.54 13.539 46.638 13.305 46.744 13.212 46.701L12.979 46.318C12.711 45.891 12.603 45.866 11.661 46.292L7.199 48.309C6.937 48.428 6.92 48.472 7.029 48.715L7.305 49.322C7.647 50.082 8.186 50.009 8.911 49.889 9.016 49.902 9.119 50.185 9.051 50.277 8.464 50.517 7.678 50.958 7.379 51.215 7.34 51.208 7.268 51.156 7.24 51.095 7.213 51.035 7.209 51 7.211 50.95 7.382 50.763 7.324 50.606 7.021 49.938L5.319 46.172C4.971 45.402 4.917 45.391 4.722 45.417 4.673 45.391 4.64 45.345 4.617 45.294 4.595 45.243 4.592 45.184 4.604 45.129 4.967 44.88 5.571 44.546 6.172 44.018 6.331 44.02 6.438 44.202 6.433 44.352 5.833 44.988 5.523 45.384 5.858 46.123L6.142 46.751C6.252 46.994 6.302 46.971 6.545 46.861ZM12.163 50.563C13.241 50.01 14.083 49.854 14.771 50.15 15.48 50.462 15.943 51.074 16.328 51.825 16.738 52.626 16.861 53.475 16.619 54.148 16.296 55 15.491 55.524 14.562 56L13.454 56.568C12.654 56.978 11.923 57.402 11.722 57.642 11.56 57.838 11.597 58.056 11.669 58.343L11.721 58.542C11.682 58.661 11.473 58.744 11.383 58.715 11.21 58.329 11.029 57.959 10.842 57.594 10.634 57.188 10.43 56.806 10.137 56.282 10.165 56.192 10.354 56.071 10.475 56.109L10.661 56.351C10.847 56.592 11.018 56.779 11.271 56.762 11.584 56.739 12.355 56.394 13.155 55.984L14.352 55.372C15.707 54.678 16.615 53.726 15.967 52.46 15.196 50.956 13.856 51.48 12.7 52.073L10.417 53.242C9.497 53.713 9.448 53.813 9.598 54.299L9.68 54.556C9.661 54.666 9.441 54.778 9.342 54.729 9.118 54.245 8.877 53.757 8.628 53.272 8.385 52.797 8.126 52.306 7.862 51.842 7.866 51.702 8.091 51.6 8.19 51.649L8.366 51.871C8.683 52.27 8.772 52.299 9.692 51.828ZM14.812 60.898C13.941 61.456 13.903 61.56 14.107 62.023L14.226 62.29C14.218 62.4 14.002 62.539 13.898 62.5 13.617 62.02 13.327 61.546 13.039 61.097 12.751 60.648 12.442 60.187 12.111 59.712 12.096 59.564 12.311 59.426 12.427 59.483L12.638 59.731C12.964 60.116 13.084 60.118 13.954 59.561L17.434 57.33C18.301 56.774 18.34 56.67 18.125 56.213L17.944 55.827C17.956 55.715 18.183 55.595 18.293 55.644 18.646 56.235 18.937 56.709 19.213 57.14L20.016 58.393C20.508 59.16 21.093 60.052 21.429 60.536 21.261 60.829 20.628 61.551 20.172 61.909 20.018 61.916 19.842 61.725 19.888 61.59 20.619 60.342 20.479 60.063 19.934 59.211 19.496 58.528 19.313 58.408 19.076 58.389 18.849 58.363 18.525 58.517 18.086 58.799ZM21.46 70.963C20.909 71.396 20.55 71.692 20.205 71.991 20.134 71.99 20.075 71.952 20.027 71.891 19.883 71.312 19.674 70.614 19.466 70.169 19.471 70.067 19.621 69.935 19.729 69.964L19.933 70.043C20.174 70.136 20.271 70.06 20.62 69.786L21.738 68.907C21.808 68.852 21.857 68.771 21.836 68.689 21.733 68.614 21.552 68.418 21.4 68.226 20.494 67.072 20.553 65.528 21.784 64.561 22.729 63.819 24.034 63.881 24.817 64.876 25.071 65.2 25.135 65.659 25.183 66.115 25.184 66.171 25.237 66.186 25.314 66.139L25.564 65.9C25.648 65.863 25.756 65.891 25.804 65.953 25.824 65.979 26.098 66.866 26.725 67.772 26.715 67.921 26.496 68.093 26.342 68.058 26.278 67.869 26.24 67.785 26.117 67.628 25.986 67.462 25.758 67.585 24.937 68.23ZM24.577 66.676C24.734 66.552 24.842 66.454 24.827 66.31 24.808 66.142 24.746 65.992 24.65 65.869 24.087 65.153 23.086 65.516 22.51 65.969 21.593 66.689 21.473 67.49 21.822 67.936 21.98 68.137 22.271 68.219 22.537 68.18 22.635 68.16 22.742 68.118 22.883 68.008ZM27.606 72.545C27.832 72.806 27.751 72.949 27.592 73.087 26.944 73.647 25.975 73.665 25.219 72.792 24.309 71.742 24.47 70.265 25.528 69.348 26.443 68.555 27.772 68.477 28.755 69.61 29.191 70.114 29.485 70.947 29.07 71.91 28.928 72.033 28.751 71.966 28.688 71.859 28.878 71.297 28.651 70.935 28.448 70.699 27.771 69.918 26.81 70.046 26.18 70.592 26.045 70.708 26.043 70.739 26.21 70.933ZM26.052 71.497C25.818 71.228 25.708 71.117 25.591 71.219 25.322 71.452 25.248 72.045 25.554 72.398 25.801 72.684 26.124 72.683 26.401 72.443 26.485 72.371 26.555 72.281 26.543 72.217 26.522 72.073 26.423 71.924 26.32 71.807ZM30.148 81.93C29.312 81.132 28.722 80.109 28.603 79.09 28.485 78.103 28.727 77.013 29.662 76.032 30.612 75.035 31.691 74.789 32.691 74.898 33.669 75.017 34.649 75.599 35.438 76.35 36.064 76.948 36.468 77.669 36.786 78.204 36.723 78.496 36.399 79.109 35.889 79.758 35.748 79.808 35.532 79.648 35.529 79.522 35.833 78.769 36.05 77.64 35.077 76.712 34.112 75.792 32.367 75.771 30.841 77.371 29.315 78.971 29.544 80.647 30.437 81.499 31.217 82.242 32.114 82.331 33.045 81.79 33.17 81.771 33.356 82.011 33.297 82.138 32.779 82.535 32.142 83.156 32.004 83.3 31.747 83.086 30.969 82.712 30.148 81.93M37.39 80.43C38.02 79.627 38.015 79.525 37.677 79.146L37.476 78.917C37.439 78.818 37.605 78.607 37.717 78.61 38.157 78.984 38.537 79.292 38.975 79.635 39.394 79.965 39.8 80.275 40.276 80.621 40.297 80.722 40.131 80.933 40.035 80.929L39.765 80.787C39.317 80.548 39.217 80.567 38.586 81.37L37.741 82.444C37.605 82.618 37.609 82.649 37.915 82.889 38.133 83.061 38.328 83.101 38.617 82.949 39.182 82.644 39.719 82.374 40.361 82.132 41.242 81.802 41.976 81.912 42.779 82.543 43.051 82.756 43.315 82.993 43.407 83.164 43.41 83.251 43.308 83.382 43.194 83.364 43.057 83.27 42.788 83.144 42.417 83.148 41.716 83.178 40.843 83.551 39.346 84.269 39.228 84.33 39.187 84.383 39.239 84.495 39.483 85.012 39.746 85.756 39.136 86.533 38.696 87.092 38.091 87.323 37.351 87.222 36.86 87.162 36.134 86.774 35.391 86.191 34.562 85.539 33.907 84.968 33.286 84.41 33.216 84.284 33.387 84.065 33.509 84.09L33.772 84.241C34.18 84.477 34.273 84.395 34.96 83.521ZM35.69 85.056C35.36 85.475 35.357 85.514 35.716 85.796 36.397 86.331 37.259 86.188 37.876 85.403 38.281 84.887 38.335 84.477 38.303 84.212 38.268 83.915 38.146 83.692 37.831 83.445 37.316 83.04 37.269 83.046 37.029 83.352ZM42.09 89.945C41.867 90.292 41.855 90.31 42.163 90.507L42.911 90.986C43.368 91.279 43.721 91.347 44.014 91.285 44.219 91.231 44.53 91.035 44.843 90.773 44.99 90.75 45.193 90.906 45.165 91.033 44.717 91.629 44.219 92.261 44.113 92.404 44.004 92.308 43.477 91.957 42.877 91.572L40.896 90.303C40.448 90.013 39.984 89.729 39.532 89.466 39.476 89.35 39.605 89.127 39.726 89.125L39.989 89.228C40.464 89.414 40.556 89.394 41.101 88.544L43.335 85.058C43.886 84.198 43.866 84.106 43.487 83.771L43.089 83.424C43.047 83.326 43.19 83.102 43.301 83.093 43.991 83.562 44.443 83.865 44.892 84.153L46.106 84.932C46.872 85.422 47.777 85.99 48.285 86.289 48.254 86.625 47.993 87.527 47.719 88.037 47.609 88.125 47.352 88.013 47.343 87.862 47.506 86.475 47.206 86.243 46.391 85.721 45.709 85.284 45.483 85.245 45.254 85.335 45.041 85.423 44.812 85.699 44.536 86.129L43.822 87.242C43.643 87.522 43.646 87.538 43.896 87.699L44.542 88.113C45.027 88.423 45.188 88.421 45.568 88.031L45.766 87.828C45.885 87.786 46.114 87.946 46.106 88.06 45.896 88.347 45.675 88.681 45.446 89.035 45.219 89.391 45.009 89.731 44.836 90.043 44.735 90.098 44.499 89.946 44.482 89.83L44.585 89.565C44.779 89.057 44.709 88.919 44.225 88.608L43.579 88.195C43.328 88.034 43.307 88.046 43.139 88.308ZM50.523 90.595C50.86 90.789 50.948 90.814 51.085 90.689L51.821 90.01C52.141 89.722 52.341 89.53 52.38 89.462 52.413 89.404 52.413 89.314 52.214 89.149L51.934 88.924C51.872 88.786 52.008 88.593 52.147 88.596 52.579 88.87 52.951 89.093 53.433 89.37 53.934 89.658 54.458 89.95 54.931 90.197 54.984 90.304 54.831 90.526 54.746 90.541L54.347 90.388C53.957 90.241 53.743 90.413 53.209 90.873L49.729 93.894C49.095 94.439 48.774 94.729 48.537 94.964 48.415 95.086 48.33 95.101 48.204 95.029 48.186 95.019 48.101 94.341 47.699 93.97 47.889 93.707 47.919 93.275 48.046 92.542L48.521 89.687C48.658 88.846 48.741 88.278 48.799 87.8 48.851 87.33 48.702 87.143 48.487 86.98L48.244 86.802C48.221 86.687 48.329 86.477 48.468 86.48 48.911 86.735 49.118 86.888 49.445 87.076 49.855 87.299 50.2 87.502 50.549 87.677 50.617 87.78 50.47 87.992 50.373 88.026L50.057 87.908C49.759 87.802 49.601 87.788 49.567 87.845 49.522 87.922 49.488 88.004 49.435 88.23L49.169 89.563C49.123 89.777 49.146 89.803 49.378 89.936ZM49.276 90.558C49.035 90.419 48.971 90.42 48.908 90.73L48.733 91.591C48.623 92.117 48.517 92.748 48.467 93.014 48.669 92.861 49.142 92.441 49.515 92.104L50.214 91.468C50.436 91.262 50.403 91.206 50.182 91.078ZM55.798 92.382C56.269 91.462 56.255 91.342 55.835 91.065L55.415 90.788C55.366 90.688 55.483 90.459 55.594 90.44 56.275 90.814 56.786 91.084 57.261 91.327 57.706 91.555 58.204 91.802 58.856 92.111 58.896 92.206 58.778 92.436 58.679 92.459L58.258 92.306C57.782 92.138 57.683 92.186 57.212 93.106L54.979 97.464C54.848 97.721 54.862 97.766 55.1 97.887L55.693 98.191C56.435 98.571 56.811 98.179 57.303 97.632 57.393 97.578 57.649 97.735 57.653 97.849 57.345 98.403 57.005 99.237 56.932 99.625 56.896 99.644 56.807 99.648 56.747 99.618 56.688 99.587 56.663 99.563 56.634 99.522 56.651 99.269 56.508 99.183 55.855 98.849L52.177 96.965C51.425 96.58 51.375 96.604 51.239 96.747 51.185 96.756 51.131 96.741 51.081 96.715 51.031 96.69 50.992 96.645 50.968 96.595 51.096 96.174 51.361 95.536 51.502 94.749 51.627 94.65 51.825 94.727 51.913 94.847 51.841 95.719 51.846 96.221 52.568 96.59L53.181 96.904C53.419 97.026 53.443 96.977 53.565 96.739ZM57.37 90.701C57.063 90.544 56.923 90.185 57.064 89.908 57.176 89.69 57.36 89.622 57.509 89.648 57.732 89.701 58.056 89.704 58.207 89.407 58.38 89.07 58.131 88.556 57.89 88.295 57.841 88.196 58.002 87.954 58.146 88.015 58.812 88.543 59.187 89.297 58.757 90.138 58.382 90.869 57.766 90.903 57.37 90.701M60.999 99.187C60.617 100.156 60.65 100.253 61.094 100.523L61.362 100.689C61.421 100.784 61.326 101.023 61.219 101.053 60.669 100.812 60.155 100.601 59.669 100.41 59.173 100.214 58.653 100.017 58.087 99.818 58.029 99.723 58.123 99.484 58.23 99.454L58.54 99.517C59.049 99.622 59.139 99.573 59.521 98.604L61.02 94.803C61.402 93.833 61.368 93.736 60.926 93.466L60.657 93.3C60.599 93.206 60.693 92.967 60.8 92.937 61.351 93.178 61.864 93.389 62.36 93.584 62.847 93.775 63.355 93.968 63.922 94.168 63.98 94.262 63.896 94.506 63.789 94.535L63.479 94.473C62.971 94.368 62.881 94.416 62.498 95.386ZM64.905 101.373C64.773 101.762 64.767 101.783 65.112 101.9L65.953 102.185C66.468 102.358 66.826 102.339 67.096 102.208 67.282 102.106 67.537 101.84 67.777 101.511 67.914 101.452 68.149 101.555 68.152 101.685 67.86 102.373 67.531 103.105 67.463 103.271 67.334 103.203 66.737 102.989 66.062 102.761L63.834 102.007C63.33 101.834 62.811 101.67 62.309 101.524 62.225 101.425 62.297 101.178 62.413 101.147L62.693 101.183C63.199 101.249 63.284 101.207 63.607 100.251L64.935 96.329C65.262 95.362 65.22 95.278 64.771 95.044L64.302 94.803C64.236 94.718 64.321 94.466 64.427 94.431 65.209 94.719 65.722 94.904 66.227 95.075L67.594 95.538C68.455 95.829 69.471 96.161 70.035 96.329 70.086 96.663 70.051 97.601 69.907 98.162 69.822 98.274 69.545 98.227 69.5 98.083 69.323 96.698 68.977 96.545 68.06 96.235 67.293 95.975 67.064 95.992 66.863 96.135 66.678 96.272 66.522 96.594 66.358 97.078L65.935 98.331C65.828 98.646 65.835 98.661 66.117 98.756L66.843 99.002C67.389 99.187 67.544 99.145 67.819 98.676L67.961 98.431C68.067 98.361 68.328 98.46 68.349 98.573 68.214 98.903 68.079 99.279 67.943 99.679 67.809 100.079 67.687 100.46 67.594 100.804 67.51 100.881 67.244 100.792 67.199 100.683L67.235 100.401C67.301 99.861 67.2 99.744 66.654 99.56L65.928 99.314C65.646 99.218 65.628 99.236 65.528 99.53ZM74.542 103.501C74.311 104.508 74.355 104.609 74.825 104.798L75.096 104.906C75.168 104.991 75.11 105.24 75.009 105.285 74.473 105.138 73.934 105.002 73.414 104.883 72.895 104.763 72.351 104.648 71.782 104.54 71.667 104.445 71.725 104.196 71.849 104.156L72.172 104.186C72.675 104.233 72.762 104.15 72.994 103.144L73.924 99.116C74.155 98.113 74.11 98.011 73.638 97.833L73.239 97.685C73.168 97.597 73.247 97.353 73.359 97.31 74.026 97.486 74.565 97.622 75.063 97.737L76.514 98.072C77.401 98.277 78.443 98.506 79.021 98.617 79.106 98.944 79.159 99.902 79.083 100.478 78.978 100.59 78.719 100.576 78.656 100.448 78.308 99.044 78.012 98.942 77.026 98.715 76.236 98.533 76.021 98.574 75.838 98.726 75.658 98.866 75.534 99.203 75.417 99.712ZM81.078 105.489C81.006 105.894 81.002 105.916 81.361 105.979L82.236 106.136C82.771 106.231 83.122 106.159 83.368 105.988 83.538 105.86 83.75 105.56 83.938 105.199 84.065 105.12 84.313 105.187 84.336 105.314 84.149 106.038 83.933 106.812 83.891 106.985 83.752 106.938 83.131 106.815 82.429 106.689L80.113 106.276C79.589 106.181 79.051 106.096 78.533 106.026 78.436 105.941 78.47 105.686 78.58 105.638L78.863 105.631C79.373 105.621 79.45 105.567 79.628 104.574L80.355 100.497C80.535 99.493 80.48 99.416 80.002 99.251L79.502 99.083C79.425 99.009 79.472 98.747 79.571 98.696 80.388 98.865 80.922 98.971 81.446 99.065L82.866 99.318C83.762 99.479 84.815 99.655 85.399 99.737 85.499 100.06 85.604 100.993 85.546 101.569 85.479 101.692 85.197 101.688 85.132 101.552 84.751 100.208 84.385 100.109 83.432 99.938 82.635 99.796 82.411 99.847 82.233 100.019 82.071 100.182 81.965 100.523 81.875 101.027L81.643 102.328C81.584 102.656 81.593 102.669 81.887 102.722L82.642 102.856C83.208 102.958 83.355 102.894 83.559 102.388L83.662 102.124C83.756 102.04 84.029 102.1 84.066 102.208 83.982 102.554 83.904 102.947 83.83 103.362 83.756 103.778 83.692 104.173 83.652 104.526 83.58 104.615 83.305 104.566 83.244 104.465L83.237 104.182C83.223 103.637 83.104 103.537 82.538 103.436L81.783 103.301C81.489 103.249 81.475 103.269 81.42 103.575ZM93.091 102.247C93.045 102.845 93.103 102.961 93.432 103.042L93.683 103.105C93.767 103.179 93.747 103.434 93.653 103.493 93.278 103.442 92.736 103.39 92.204 103.35 91.661 103.308 91.117 103.278 90.33 103.24 90.213 103.165 90.232 102.91 90.359 102.853L90.852 102.823C91.39 102.786 91.461 102.725 91.506 102.126L91.56 101.429C91.614 100.708 91.49 100.576 90.858 100.528 90.449 100.497 89.868 100.52 89.309 100.834 88.552 101.267 87.938 102.167 87.817 103.751 87.684 105.502 88.426 107.029 90.187 107.163 91.218 107.242 91.955 106.774 92.389 105.759 92.475 105.655 92.773 105.688 92.808 105.814 92.646 106.481 92.576 107.255 92.518 107.585 92.163 107.559 91.533 107.778 90.304 107.685 89.361 107.613 88.478 107.368 87.756 106.9 86.482 106.057 85.955 104.791 86.061 103.406 86.182 101.811 87.161 100.648 88.497 100.226 89.308 99.976 89.956 99.947 90.709 100.004 91.33 100.052 92.271 100.268 92.65 100.419 92.941 100.542 93.228 100.597 93.413 100.645 93.478 100.683 93.474 100.872 93.426 100.913 93.212 100.941 93.173 101.161 93.138 101.627ZM96.734 106.134C96.708 107.176 96.772 107.256 97.281 107.357L97.591 107.421C97.678 107.49 97.671 107.747 97.581 107.812 96.981 107.774 96.427 107.753 95.904 107.74 95.371 107.727 94.815 107.72 94.215 107.727 94.128 107.658 94.135 107.4 94.225 107.336L94.537 107.289C95.051 107.212 95.119 107.137 95.146 106.094L95.249 102.01C95.275 100.968 95.21 100.889 94.702 100.787L94.392 100.724C94.305 100.654 94.312 100.397 94.402 100.333 95.001 100.37 95.557 100.392 96.09 100.405 96.611 100.418 97.156 100.425 97.757 100.417 97.844 100.487 97.849 100.744 97.758 100.809L97.445 100.856C96.932 100.932 96.863 101.008 96.837 102.05ZM103.495 102.353C103.526 103.575 102.665 104.241 101.985 104.625L101.262 105.033C100.714 105.335 100.271 105.813 100.283 106.324 100.297 106.879 100.709 107.347 101.442 107.329 102.242 107.308 102.699 106.485 102.874 105.914 102.971 105.8 103.249 105.805 103.308 105.937 103.327 106.681 103.23 107.283 103.147 107.53 103.016 107.556 102.916 107.581 102.772 107.628 102.332 107.773 101.877 107.829 101.511 107.838 99.9 107.878 98.901 107.037 98.88 105.782 98.853 104.682 99.713 103.993 100.503 103.573 101.16 103.223 101.991 102.669 101.969 101.77 101.955 101.213 101.563 100.657 100.741 100.677 99.797 100.701 99.078 101.742 98.874 102.47 98.789 102.594 98.533 102.589 98.451 102.447 98.433 101.692 98.557 100.888 98.761 100.639 98.991 100.5 99.617 100.195 100.639 100.169 102.316 100.126 103.461 100.986 103.495 102.353M107.33 105.643C107.46 106.668 107.537 106.748 108.043 106.762L108.335 106.769C108.432 106.824 108.464 107.078 108.385 107.155 107.831 107.203 107.278 107.262 106.749 107.329 106.22 107.396 105.67 107.478 105.1 107.573 104.959 107.523 104.927 107.27 105.028 107.189L105.343 107.105C105.83 106.976 105.884 106.868 105.754 105.843L105.232 101.743C105.103 100.721 105.025 100.642 104.521 100.638L104.095 100.637C103.998 100.578 103.988 100.322 104.079 100.243 104.765 100.178 105.317 100.119 105.824 100.054L107.302 99.867C108.205 99.752 109.262 99.607 109.844 99.51 110.035 99.789 110.416 100.669 110.544 101.235 110.483 101.378 110.236 101.454 110.134 101.355 109.321 100.159 109.008 100.165 108.005 100.292 107.2 100.395 107.014 100.508 106.894 100.714 106.772 100.909 106.773 101.267 106.84 101.785Z" fill="#231f20" fill-rule="evenodd"/>
<path transform="matrix(1,0,0,-1,158.832,39.765794)" d="M0 0C.384-.068 .467-.105 .491-.289L.618-1.282C.678-1.708 .707-1.984 .693-2.061 .682-2.126 .624-2.195 .364-2.194L.005-2.187C-.131-2.252-.15-2.488-.042-2.575 .466-2.643 .894-2.712 1.44-2.81 2.009-2.911 2.598-3.024 3.119-3.14 3.229-3.091 3.255-2.823 3.199-2.757L2.795-2.617C2.402-2.479 2.349-2.21 2.235-1.515L1.514 3.037C1.379 3.862 1.319 4.291 1.289 4.624 1.274 4.795 1.219 4.862 1.076 4.887 1.055 4.891 .554 4.428 .008 4.401-.017 4.078-.271 3.729-.646 3.084L-2.117 .593C-2.553-.14-2.854-.628-3.118-1.03-3.38-1.424-3.614-1.472-3.883-1.458L-4.185-1.438C-4.276-1.512-4.328-1.742-4.22-1.829-3.717-1.918-3.46-1.935-3.088-2.001-2.631-2.094-2.236-2.16-1.857-2.25-1.738-2.215-1.715-1.958-1.767-1.87L-2.085-1.757C-2.382-1.647-2.512-1.556-2.501-1.491-2.485-1.403-2.458-1.317-2.354-1.11L-1.701 .081C-1.599 .274-1.563 .28-1.301 .232ZM-.979 .773C-1.253 .822-1.301 .865-1.15 1.143L-.73 1.914C-.477 2.388-.151 2.939-.02 3.175 .038 2.928 .129 2.303 .198 1.805L.324 .868C.361 .568 .301 .545 .049 .59ZM5.189-2.032C4.956-3.039 4.869-3.121 4.369-3.063L3.869-3.004C3.768-3.049 3.71-3.3 3.782-3.385 4.544-3.538 5.109-3.661 5.629-3.781 6.116-3.894 6.655-4.025 7.354-4.209 7.445-4.162 7.503-3.911 7.442-3.829L7.021-3.675C6.55-3.498 6.505-3.396 6.737-2.389L7.838 2.382C7.903 2.663 7.942 2.688 8.203 2.628L8.853 2.478C9.664 2.291 9.699 1.749 9.723 1.014 9.757 .915 10.055 .869 10.131 .954 10.252 1.576 10.529 2.434 10.723 2.777 10.709 2.814 10.643 2.875 10.578 2.89 10.513 2.905 10.478 2.902 10.43 2.89 10.28 2.685 10.114 2.711 9.4 2.876L5.373 3.806C4.551 3.996 4.527 4.046 4.516 4.243 4.48 4.286 4.429 4.309 4.374 4.322 4.32 4.334 4.261 4.325 4.21 4.302 4.037 3.897 3.828 3.239 3.429 2.546 3.461 2.391 3.662 2.321 3.807 2.356 4.313 3.07 4.641 3.45 5.431 3.268L6.103 3.113C6.362 3.053 6.35 2.999 6.29 2.739ZM13.562-.182C13.896 .806 13.983 .858 14.496 .779L14.809 .731C14.914 .766 14.996 1.01 14.934 1.102 14.358 1.273 13.83 1.444 13.335 1.611 12.83 1.782 12.306 1.967 11.744 2.181 11.64 2.146 11.557 1.902 11.619 1.811L11.896 1.658C12.353 1.41 12.39 1.315 12.057 .328L10.746-3.542C10.412-4.53 10.324-4.582 9.812-4.502L9.499-4.455C9.394-4.49 9.312-4.734 9.374-4.825 9.949-4.996 10.479-5.167 10.983-5.339 11.478-5.506 11.991-5.687 12.552-5.901 12.658-5.866 12.751-5.625 12.688-5.534L12.411-5.382C11.956-5.134 11.918-5.039 12.252-4.051ZM20.11-3.715C20.791-3.016 21.278-2.539 21.641-2.288 21.86-2.124 22.064-2.121 22.374-2.183L22.663-2.237C22.76-2.204 22.848-1.952 22.781-1.878 22.474-1.78 22.159-1.668 21.808-1.53 21.415-1.375 21.026-1.209 20.549-.997 20.404-1 20.319-1.217 20.369-1.333L20.671-1.535C20.895-1.695 20.961-1.769 20.932-1.841 20.907-1.903 20.832-2.005 20.683-2.173 20.42-2.475 19.519-3.458 19.004-4.007L18.229-4.824C17.981-5.085 17.678-5.372 17.525-5.514 17.522-5.31 17.521-4.951 17.527-4.511L17.534-1.827C17.53-1.109 17.536-.61 17.569-.527 17.605-.434 17.702-.4 17.905-.433L18.239-.493C18.338-.424 18.426-.232 18.367-.137 17.729 .091 17.28 .255 16.805 .443 16.268 .655 15.935 .81 15.411 1.028 15.298 1.013 15.193 .839 15.231 .693L15.604 .427C15.902 .213 15.946 .172 15.947-.975L15.963-5.842C15.97-6.25 15.929-6.868 15.933-7.191 15.975-7.268 16.056-7.335 16.18-7.384 16.334-7.445 16.471-7.463 16.574-7.444 17.039-6.959 17.63-6.249 18.65-5.206ZM23.129-7.44C23.483-7.6 23.555-7.657 23.533-7.84L23.412-8.834C23.365-9.262 23.326-9.537 23.294-9.608 23.268-9.669 23.194-9.721 22.943-9.657L22.597-9.561C22.448-9.591 22.372-9.815 22.456-9.926 22.931-10.116 23.329-10.288 23.835-10.517 24.361-10.755 24.904-11.009 25.382-11.249 25.5-11.229 25.591-10.976 25.553-10.897L25.195-10.662C24.849-10.433 24.862-10.159 24.924-9.457L25.341-4.867C25.412-4.034 25.46-3.604 25.512-3.274 25.54-3.104 25.502-3.026 25.37-2.966 25.351-2.957 24.752-3.284 24.215-3.175 24.113-3.483 23.78-3.759 23.26-4.292L21.221-6.346C20.619-6.949 20.207-7.348 19.852-7.674 19.502-7.991 19.263-7.98 19.006-7.901L18.719-7.808C18.611-7.856 18.504-8.066 18.588-8.178 19.054-8.388 19.299-8.466 19.644-8.622 20.064-8.824 20.43-8.985 20.775-9.166 20.899-9.161 20.985-8.918 20.956-8.819L20.676-8.632C20.415-8.452 20.311-8.332 20.338-8.271 20.375-8.19 20.422-8.114 20.573-7.939L21.499-6.945C21.646-6.782 21.681-6.785 21.924-6.896ZM22.369-6.45C22.116-6.335 22.079-6.282 22.294-6.05L22.89-5.405C23.253-5.008 23.702-4.553 23.889-4.357 23.884-4.61 23.818-5.24 23.764-5.739L23.656-6.678C23.618-6.978 23.554-6.985 23.32-6.88ZM25.269-2.383C26.189-2.8 26.918-2.483 27.279-1.549 27.217-1.472 27.075-1.407 26.986-1.417 26.673-1.811 26.079-1.885 25.594-1.665 25.107-1.445 24.77-.951 24.859-.455 24.808-.382 24.665-.318 24.566-.322 24.104-1.211 24.348-1.967 25.269-2.383M28.928-13.519C29.833-14.039 30.814-14.027 31.317-13.175 31.678-12.549 31.505-11.912 31.033-11.217 30.722-10.756 30.644-10.468 30.771-10.246 30.921-9.986 31.217-9.938 31.496-10.099 31.814-10.282 31.939-10.623 31.81-11.292 31.829-11.393 32.07-11.531 32.17-11.447 32.38-11.082 32.554-10.668 32.579-10.401 32.518-10.263 32.156-9.889 31.665-9.606 30.836-9.13 29.9-9.13 29.418-9.968 29.086-10.546 29.302-11.131 29.713-11.752 29.946-12.104 30.138-12.484 29.934-12.84 29.745-13.168 29.434-13.22 29.145-13.053 28.653-12.771 28.614-11.992 28.716-11.525 28.707-11.405 28.49-11.293 28.377-11.356 28.108-11.778 27.91-12.28 27.905-12.533 28.049-12.885 28.379-13.203 28.928-13.519M28.698-13.784C28.409-13.618 28.047-13.691 27.892-13.961 27.798-14.124 27.816-14.315 27.929-14.431 28.084-14.584 28.248-14.857 28.076-15.156 27.888-15.484 27.353-15.522 27.027-15.463 26.907-15.471 26.793-15.738 26.922-15.826 27.689-16.075 28.505-15.993 28.96-15.203 29.353-14.519 29.017-13.967 28.698-13.784M34.663-12.955C34.933-12.534 35.206-12.128 35.404-11.86 35.403-11.779 35.365-11.715 35.29-11.667 34.901-11.656 34.076-11.483 33.559-11.322 33.457-11.337 33.349-11.505 33.378-11.603L33.455-11.771C33.561-11.998 33.489-12.11 33.249-12.484L32.344-13.896C31.924-14.551 31.833-14.611 31.506-14.442L31.316-14.346C31.205-14.354 31.067-14.569 31.115-14.68 31.437-14.859 31.835-15.102 32.256-15.371 32.687-15.647 33.045-15.89 33.36-16.119 33.48-16.117 33.619-15.901 33.58-15.797L33.414-15.665C33.123-15.439 33.14-15.331 33.56-14.676ZM36.116-9.412C35.742-9.172 35.24-9.234 34.977-9.646 34.73-10.028 34.794-10.465 35.206-10.729 35.562-10.957 36.057-10.945 36.345-10.496 36.585-10.122 36.509-9.664 36.116-9.412M37.789-17.135C37.159-17.936 37.053-17.964 36.611-17.717L36.306-17.547C36.199-17.539 36.034-17.749 36.063-17.856 36.576-18.229 37.028-18.57 37.448-18.899 37.762-19.148 38.156-19.543 38.567-19.866 39.467-20.573 40.272-21.022 41.101-21.192 42.496-21.483 43.797-20.98 44.717-19.809 45.575-18.717 45.757-17.192 44.935-15.882 44.503-15.19 43.842-14.557 43.126-13.994 42.199-13.266 41.49-12.766 40.722-12.232 40.61-12.159 40.411-12.413 40.465-12.525L40.617-12.673C40.984-13.032 40.871-13.212 40.219-14.042ZM41.798-14.604C42.011-14.333 42.15-14.174 42.257-14.146 42.365-14.117 42.564-14.204 42.801-14.389 44.382-15.632 44.478-17.219 43.242-18.791 42.309-19.979 40.735-20.92 39.224-19.732 38.909-19.485 38.718-19.207 38.698-18.909 38.685-18.602 38.914-18.273 39.292-17.793ZM44.779-22.748C44.075-23.486 43.974-23.496 43.55-23.216L43.295-23.049C43.191-23.027 43.007-23.222 43.024-23.332 43.458-23.714 43.817-24.046 44.22-24.43 44.605-24.798 44.97-25.156 45.381-25.578 45.483-25.583 45.669-25.389 45.65-25.295L45.472-25.048C45.172-24.639 45.177-24.537 45.881-23.798L46.824-22.809C46.977-22.649 47.008-22.648 47.289-22.917 47.49-23.109 47.558-23.295 47.448-23.604 47.227-24.206 47.036-24.776 46.889-25.447 46.688-26.366 46.9-27.076 47.641-27.781 47.89-28.019 48.162-28.248 48.345-28.314 48.432-28.304 48.546-28.184 48.513-28.074 48.399-27.951 48.236-27.704 48.188-27.336 48.116-26.638 48.361-25.721 48.858-24.137 48.902-24.01 48.949-23.962 49.067-23.999 49.613-24.166 50.388-24.32 51.069-23.605 51.561-23.09 51.702-22.458 51.497-21.74 51.367-21.264 50.88-20.6 50.196-19.948 49.433-19.219 48.774-18.653 48.134-18.119 47.999-18.067 47.807-18.268 47.849-18.385L48.035-18.624C48.327-18.994 48.259-19.098 47.492-19.902ZM49.115-20.406C49.483-20.02 49.522-20.011 49.852-20.325 50.479-20.923 50.461-21.796 49.771-22.52 49.318-22.994 48.92-23.106 48.653-23.112 48.354-23.12 48.116-23.031 47.827-22.754 47.353-22.302 47.352-22.255 47.62-21.974ZM54.677-25.796C54.975-25.513 54.99-25.498 55.242-25.762L55.855-26.405C56.23-26.797 56.363-27.131 56.358-27.431 56.345-27.643 56.211-27.985 56.014-28.342 56.018-28.491 56.211-28.661 56.33-28.609 56.83-28.055 57.355-27.446 57.477-27.315 57.361-27.227 56.916-26.776 56.424-26.26L54.801-24.558C54.432-24.173 54.063-23.771 53.72-23.378 53.595-23.344 53.4-23.513 53.421-23.631L53.573-23.871C53.846-24.302 53.843-24.396 53.112-25.092L50.116-27.95C49.377-28.654 49.283-28.651 48.882-28.343L48.465-28.019C48.361-27.996 48.168-28.18 48.181-28.29 48.772-28.878 49.156-29.265 49.524-29.65L50.52-30.694C51.146-31.352 51.876-32.133 52.267-32.575 52.591-32.48 53.426-32.052 53.875-31.686 53.941-31.562 53.781-31.33 53.632-31.35 52.301-31.774 52.017-31.524 51.348-30.823 50.79-30.237 50.708-30.022 50.753-29.78 50.8-29.555 51.026-29.277 51.396-28.924L52.353-28.012C52.594-27.782 52.61-27.782 52.815-27.999L53.345-28.553C53.742-28.97 53.77-29.128 53.46-29.576L53.298-29.808C53.279-29.934 53.48-30.128 53.591-30.099 53.833-29.838 54.117-29.557 54.423-29.265 54.729-28.974 55.022-28.703 55.296-28.474 55.33-28.365 55.137-28.162 55.019-28.167L54.779-28.318C54.316-28.606 54.168-28.563 53.771-28.147L53.242-27.592C53.036-27.376 53.045-27.353 53.27-27.138ZM54.646-32.94C53.835-33.579 53.732-33.575 53.354-33.236L53.117-33.026C52.998-32.964 52.81-33.141 52.833-33.278 53.221-33.736 53.557-34.151 53.886-34.571 54.215-34.99 54.546-35.423 54.913-35.925 55.041-35.98 55.243-35.821 55.211-35.691L55.035-35.377C54.787-34.936 54.816-34.829 55.629-34.19L59.314-31.294C59.662-31.021 59.771-30.962 60.025-31.286 60.644-32.072 60.207-32.952 59.561-33.46 58.914-33.968 58.282-34.225 57.485-33.678 57.385-33.658 57.259-33.785 57.27-33.89 57.337-33.993 57.398-34.071 57.481-34.176 57.845-34.639 59.188-35.916 60.62-34.79 61.468-34.124 61.51-33.229 61.292-32.538 61.144-32.061 60.847-31.503 60.263-30.76 59.666-30 59.096-29.346 58.599-28.804 58.462-28.756 58.27-28.907 58.288-29.02L58.466-29.318C58.71-29.72 58.619-29.819 57.738-30.512ZM59.661-39.579C58.818-40.178 58.698-40.182 58.363-39.806L58.028-39.431C57.923-39.397 57.713-39.546 57.71-39.657 58.179-40.278 58.52-40.745 58.829-41.18 59.119-41.587 59.435-42.044 59.835-42.646 59.935-42.67 60.145-42.521 60.153-42.419L59.941-42.024C59.706-41.578 59.739-41.473 60.582-40.874L64.572-38.036C64.808-37.869 64.854-37.876 65.008-38.094L65.395-38.637C65.878-39.316 65.544-39.745 65.074-40.311 65.033-40.407 65.226-40.639 65.339-40.626 65.843-40.241 66.619-39.784 66.991-39.656 67.006-39.618 66.997-39.529 66.958-39.475 66.92-39.42 66.892-39.4 66.848-39.377 66.6-39.43 66.494-39.301 66.069-38.703L63.674-35.334C63.184-34.647 63.201-34.594 63.322-34.439 63.324-34.383 63.301-34.332 63.269-34.286 63.236-34.241 63.187-34.209 63.133-34.192 62.735-34.379 62.142-34.733 61.383-34.987 61.305-35.125 61.408-35.31 61.54-35.379 62.393-35.182 62.89-35.115 63.359-35.776L63.759-36.337C63.913-36.555 63.868-36.587 63.651-36.741ZM71.148-47.246C70.621-46.217 69.809-45.36 68.865-44.957 67.951-44.563 66.838-44.485 65.631-45.103 64.405-45.73 63.862-46.695 63.684-47.686 63.52-48.656 63.799-49.762 64.295-50.73 64.689-51.502 65.267-52.093 65.688-52.551 65.987-52.573 66.666-52.438 67.434-52.131 67.521-52.012 67.43-51.759 67.311-51.721 66.502-51.798 65.357-51.685 64.744-50.488 64.137-49.301 64.612-47.622 66.58-46.614 68.549-45.606 70.091-46.302 70.652-47.399 71.145-48.359 70.974-49.245 70.19-49.983 70.137-50.098 70.313-50.345 70.453-50.323 70.98-49.94 71.757-49.506 71.935-49.415 71.803-49.107 71.665-48.254 71.148-47.246M74.331-53.96C73.375-51.844 71.147-51.045 69.144-51.952 67.027-52.909 66.359-54.991 67.279-57.026 68.264-59.203 70.258-60.081 72.465-59.083 74.521-58.154 75.283-56.065 74.331-53.96M71.602-57.523C69.961-58.265 68.432-58.334 67.832-57.008 67.086-55.357 68.873-54.025 70.109-53.467 71.8-52.702 73.266-52.844 73.829-54.089 74.396-55.345 73.333-56.74 71.602-57.523M76.14-59.732C76.187-60.181 76.093-60.461 75.483-60.634 74.906-60.798 74.036-61.022 73.308-61.183 72.274-61.407 71.335-61.639 70.796-61.734 70.117-61.858 70.035-61.812 69.783-61.294L69.697-61.111C69.616-61.03 69.338-61.109 69.335-61.26 69.479-61.681 69.604-62.084 69.701-62.426 69.816-62.833 69.937-63.295 70.027-63.697 70.105-63.767 70.356-63.719 70.407-63.612L70.354-63.177C70.296-62.731 70.427-62.625 70.96-62.473 71.602-62.291 72.673-61.998 73.371-61.812 73.93-61.665 74.403-61.542 75.108-61.388L75.114-61.409C73.896-62.402 71.621-64.468 70.414-65.262 70.389-65.338 70.401-65.462 70.429-65.558 70.453-65.644 70.506-65.709 70.564-65.75 72.57-65.943 74.597-66.292 76.53-66.598L76.536-66.619 75.319-66.964 72.546-67.775C71.896-67.959 71.768-67.996 71.563-67.522L71.431-67.214C71.325-67.128 71.082-67.209 71.065-67.352 71.232-67.859 71.41-68.444 71.546-68.925 71.695-69.449 71.815-69.912 71.934-70.409 72.006-70.504 72.252-70.434 72.313-70.324L72.259-69.97C72.194-69.538 72.438-69.422 72.922-69.262 74.251-68.815 75.399-68.466 77.599-67.842 78.165-67.681 78.354-67.858 78.554-68.275L78.695-68.57C78.826-68.625 79.031-68.567 79.063-68.431 78.932-68.053 78.784-67.563 78.685-67.21 78.594-66.89 78.51-66.647 78.412-66.144 77.425-66.17 76.782-66.064 75.537-65.863L74.207-65.651C73.494-65.542 73.114-65.465 72.818-65.399 73.044-65.173 73.607-64.598 73.794-64.44L75.099-63.308C75.971-62.552 76.516-61.993 77.181-61.804 77.039-61.429 76.955-61.118 76.854-60.765 76.706-60.241 76.582-59.779 76.501-59.41 76.436-59.301 76.177-59.375 76.115-59.485ZM73.862-71.616C72.855-71.849 72.764-71.801 72.565-71.334L72.441-71.044C72.359-70.937 72.113-71.017 72.076-71.15 72.232-71.73 72.359-72.248 72.479-72.768 72.6-73.287 72.715-73.82 72.833-74.431 72.926-74.535 73.177-74.477 73.203-74.346L73.178-73.986C73.141-73.482 73.212-73.397 74.219-73.165L78.786-72.11C79.218-72.011 79.342-72.005 79.434-72.406 79.659-73.38 78.89-73.991 78.088-74.176 77.287-74.36 76.605-74.325 76.117-73.49 76.034-73.43 75.866-73.491 75.832-73.591 75.849-73.712 75.871-73.81 75.901-73.939 76.034-74.513 76.706-76.24 78.481-75.83 79.531-75.587 79.951-74.795 80.048-74.077 80.116-73.583 80.084-72.951 79.872-72.031 79.654-71.089 79.416-70.254 79.197-69.552 79.094-69.451 78.855-69.506 78.824-69.616L78.858-69.961C78.909-70.429 78.784-70.48 77.692-70.732ZM76.256-79.487C76.305-79.873 76.294-79.964 76.126-80.041L75.217-80.459C74.827-80.643 74.572-80.754 74.495-80.763 74.429-80.772 74.347-80.738 74.27-80.49L74.17-80.144C74.066-80.034 73.836-80.086 73.785-80.215 73.872-80.72 73.934-81.148 74.004-81.699 74.077-82.272 74.146-82.869 74.19-83.401 74.269-83.492 74.532-83.436 74.579-83.363L74.592-82.935C74.606-82.519 74.847-82.388 75.478-82.072L79.605-80.025C80.354-79.649 80.744-79.465 81.053-79.337 81.213-79.271 81.259-79.198 81.241-79.055 81.238-79.033 80.646-78.694 80.458-78.18 80.143-78.254 79.733-78.116 79.006-77.95L76.189-77.289C75.359-77.092 74.805-76.95 74.341-76.818 73.887-76.686 73.771-76.476 73.705-76.216L73.634-75.923C73.536-75.856 73.301-75.875 73.25-76.004 73.314-76.512 73.376-76.762 73.424-77.136 73.472-77.601 73.525-77.997 73.553-78.385 73.622-78.489 73.874-78.435 73.943-78.358L73.956-78.021C73.972-77.705 74.021-77.553 74.086-77.545 74.174-77.534 74.264-77.534 74.492-77.572L75.824-77.839C76.04-77.879 76.056-77.911 76.089-78.175ZM76.701-78.322C76.666-78.046 76.692-77.986 77.002-78.048L77.864-78.219C78.393-78.319 79.016-78.464 79.28-78.52 79.062-78.649 78.491-78.923 78.037-79.137L77.181-79.538C76.905-79.662 76.865-79.611 76.833-79.357ZM75.893-84.25C74.875-84.328 74.793-84.267 74.666-83.775L74.588-83.48C74.525-83.396 74.258-83.417 74.198-83.51 74.265-84.084 74.309-84.571 74.351-85.125 74.392-85.657 74.423-86.167 74.445-86.756 74.518-86.829 74.785-86.808 74.835-86.727L74.867-86.423C74.918-85.918 74.99-85.846 76.008-85.768L77.371-85.665C77.591-85.648 77.614-85.668 77.644-86.056 77.665-86.333 77.59-86.518 77.303-86.673 76.734-86.972 76.211-87.269 75.653-87.667 74.889-88.216 74.572-88.886 74.649-89.905 74.676-90.249 74.725-90.602 74.815-90.773 74.887-90.823 75.053-90.811 75.101-90.707 75.099-90.54 75.144-90.247 75.354-89.941 75.769-89.375 76.564-88.857 77.993-88.013 78.11-87.949 78.178-87.943 78.241-88.05 78.535-88.54 79.007-89.173 79.992-89.098 80.701-89.044 81.23-88.669 81.558-87.998 81.781-87.558 81.863-86.738 81.792-85.796 81.712-84.744 81.602-83.883 81.483-83.056 81.417-82.928 81.141-82.949 81.094-83.063L81.072-83.366C81.041-83.836 80.921-83.868 79.813-83.952ZM80.682-85.413C81.213-85.373 81.248-85.392 81.283-85.846 81.349-86.71 80.75-87.347 79.754-87.422 79.1-87.472 78.729-87.289 78.526-87.114 78.3-86.92 78.183-86.694 78.152-86.296 78.103-85.643 78.134-85.606 78.521-85.577ZM77.145-95.244C77.135-95.633 77.111-95.722 76.934-95.772L75.971-96.049C75.558-96.172 75.289-96.242 75.212-96.24 75.145-96.238 75.068-96.192 75.03-95.936L74.984-95.579C74.898-95.454 74.663-95.471 74.593-95.592 74.603-96.103 74.599-96.536 74.585-97.092 74.57-97.669 74.547-98.269 74.512-98.801 74.576-98.902 74.845-98.887 74.902-98.822L74.979-98.402C75.057-97.992 75.314-97.898 75.984-97.683L80.375-96.281C81.171-96.023 81.586-95.9 81.909-95.82 82.077-95.779 82.135-95.715 82.139-95.57 82.139-95.549 81.605-95.123 81.496-94.588 81.173-94.613 80.789-94.414 80.096-94.141L77.411-93.062C76.621-92.742 76.094-92.518 75.655-92.317 75.227-92.117 75.145-91.893 75.117-91.625L75.092-91.325C75.005-91.245 74.77-91.228 74.7-91.348 74.688-91.859 74.71-92.115 74.701-92.493 74.678-92.959 74.672-93.359 74.64-93.747 74.692-93.859 74.95-93.844 75.029-93.779L75.094-93.447C75.157-93.138 75.228-92.995 75.294-92.997 75.383-92.999 75.471-93.012 75.691-93.085L76.967-93.551C77.175-93.622 77.185-93.656 77.179-93.923ZM77.762-94.16C77.769-93.882 77.803-93.827 78.101-93.936L78.927-94.233C79.434-94.412 80.027-94.65 80.28-94.746 80.045-94.84 79.44-95.025 78.959-95.168L78.052-95.434C77.761-95.516 77.729-95.459 77.734-95.203ZM75.943-100.682C74.913-100.604 74.818-100.529 74.801-100.026L74.783-99.523C74.724-99.43 74.467-99.41 74.394-99.494 74.356-100.271 74.32-100.848 74.28-101.379 74.242-101.878 74.192-102.432 74.115-103.15 74.176-103.232 74.433-103.252 74.505-103.18L74.594-102.74C74.698-102.247 74.792-102.188 75.822-102.266L80.705-102.637C80.993-102.659 81.023-102.695 81.003-102.961L80.952-103.625C80.89-104.456 80.359-104.572 79.636-104.707 79.543-104.755 79.542-105.056 79.638-105.119 80.271-105.145 81.16-105.291 81.529-105.43 81.563-105.41 81.613-105.336 81.619-105.27 81.624-105.203 81.615-105.169 81.597-105.123 81.371-105.006 81.373-104.839 81.429-104.107L81.742-99.986C81.806-99.145 81.853-99.114 82.046-99.072 82.082-99.031 82.098-98.977 82.102-98.922 82.105-98.865 82.088-98.809 82.058-98.762 81.632-98.651 80.949-98.544 80.204-98.253 80.056-98.309 80.018-98.518 80.073-98.656 80.855-99.049 81.28-99.316 81.219-100.124L81.166-100.811C81.146-101.077 81.091-101.073 80.825-101.053Z" fill="#231f20" fill-rule="evenodd"/>
</g>
</g>
</svg>
